<?xml version="1.0" standalone="no"?>
<!DOCTYPE svg PUBLIC "-//W3C//DTD SVG 20010904//EN"
 "http://www.w3.org/TR/2001/REC-SVG-20010904/DTD/svg10.dtd">
<svg version="1.0" xmlns="http://www.w3.org/2000/svg"
 width="512.000000pt" height="512.000000pt" viewBox="0 0 512.000000 512.000000"
 preserveAspectRatio="xMidYMid meet">

<g transform="translate(0.000000,512.000000) scale(0.100000,-0.100000)"
fill="#000000" stroke="none">
<path d="M2400 5114 c-171 -21 -218 -28 -305 -46 -283 -57 -613 -210 -845
-391 -88 -69 -259 -236 -329 -322 -418 -511 -588 -1193 -456 -1828 100 -485
389 -943 781 -1241 l91 -69 -19 -32 c-18 -31 -18 -57 -16 -580 l3 -547 33 -29
32 -29 285 0 285 0 31 28 c26 23 32 38 37 81 l5 53 86 -4 c83 -3 90 -5 151
-45 151 -98 192 -105 575 -101 l300 3 66 32 c79 39 150 111 185 187 33 73 108
603 101 721 l-5 81 86 44 c257 135 505 337 681 556 510 631 603 1518 242 2279
-307 645 -884 1070 -1601 1179 -102 16 -410 29 -480 20z m388 -205 c593 -65
1117 -409 1434 -941 292 -491 362 -1076 192 -1597 -117 -358 -374 -714 -681
-945 -94 -71 -272 -179 -332 -203 -39 -15 -40 -15 -87 17 -82 57 -143 70 -335
70 -104 0 -169 4 -169 10 0 5 10 12 23 14 296 60 443 117 653 257 133 89 318
270 417 409 129 182 237 433 289 670 30 142 33 495 5 633 -44 217 -141 442
-265 617 -123 173 -318 359 -493 468 -155 98 -411 200 -468 187 -43 -9 -71
-49 -71 -100 0 -54 25 -78 116 -109 174 -59 307 -131 449 -242 272 -212 458
-507 531 -845 29 -132 27 -448 -4 -588 -102 -455 -386 -832 -775 -1027 -69
-35 -261 -104 -290 -104 -11 0 -16 16 -19 68 -8 144 -85 241 -259 330 -108 54
-150 62 -185 38 -11 -8 -80 -109 -153 -225 l-132 -210 -67 23 c-395 135 -695
395 -862 749 -152 322 -187 670 -100 1012 121 480 470 855 950 1019 89 30 120
60 120 114 0 48 -21 77 -64 92 -30 10 -47 7 -128 -20 -340 -114 -647 -348
-844 -641 -361 -539 -374 -1258 -32 -1817 123 -201 319 -398 523 -522 84 -52
270 -141 343 -165 34 -11 50 -21 45 -28 -44 -76 -86 -126 -114 -136 -18 -6
-80 -11 -138 -11 l-107 0 -92 53 c-254 145 -444 312 -630 553 -64 83 -162 259
-212 380 -115 282 -166 604 -141 894 94 1052 895 1800 1939 1809 67 1 166 -4
220 -10z m-173 -3161 c74 -49 98 -90 92 -158 -3 -44 -16 -76 -65 -165 -71
-126 -80 -176 -39 -235 50 -74 52 -74 315 -80 227 -5 239 -6 275 -28 50 -32
87 -96 87 -153 0 -56 -68 -554 -81 -596 -15 -46 -45 -81 -91 -104 -37 -19 -54
-20 -336 -17 -329 3 -313 0 -429 80 -65 44 -118 59 -230 65 l-103 6 0 342 0
341 39 17 c63 28 105 84 311 410 106 169 196 307 199 307 4 0 29 -15 56 -32z
m-805 -1133 l0 -415 -155 0 -155 0 0 415 0 415 155 0 155 0 0 -415z"/>
<path d="M2498 4611 c-27 -24 -33 -36 -33 -71 0 -35 6 -47 33 -71 36 -32 69
-36 112 -14 61 32 68 99 16 151 -44 44 -83 45 -128 5z"/>
<path d="M2512 4043 c-7 -3 -87 -116 -178 -252 l-164 -246 -278 -77 c-248 -70
-280 -81 -304 -108 -34 -37 -36 -76 -5 -121 13 -19 96 -126 185 -238 l161
-203 -5 -107 c-18 -349 -20 -457 -8 -487 14 -38 49 -64 85 -64 14 0 147 45
294 100 l267 99 268 -99 c147 -55 280 -100 295 -100 18 0 39 12 62 35 l36 36
-7 107 c-3 59 -8 193 -12 297 l-6 190 108 135 c245 306 254 319 254 356 0 43
-13 70 -43 86 -12 6 -143 46 -292 87 l-270 76 -157 235 c-87 129 -167 243
-179 253 -20 16 -78 22 -107 10z m330 -669 c13 -6 115 -37 228 -69 113 -31
208 -59 212 -61 4 -3 -57 -86 -137 -186 -79 -99 -145 -190 -147 -202 -2 -12 0
-119 5 -239 5 -120 7 -220 4 -223 -2 -2 -96 30 -208 71 -112 42 -217 77 -234
78 -16 0 -123 -35 -238 -78 -114 -43 -210 -76 -212 -73 -3 3 0 105 5 227 6
122 8 231 5 242 -4 11 -67 97 -142 191 -74 94 -137 176 -139 182 -3 8 69 32
208 70 117 32 221 63 231 68 9 5 76 97 148 205 l131 195 129 -193 c70 -106
139 -198 151 -205z"/>
</g>
</svg>
