<?xml version="1.0" encoding="UTF-8"?>
<svg version="1.1" xmlns="http://www.w3.org/2000/svg" width="512" height="512">
<path d="M0 0 C1.08708252 -0.00428513 2.17416504 -0.00857025 3.29418945 -0.01298523 C5.58706975 -0.01871496 7.87996822 -0.01923882 10.17285156 -0.01489258 C13.67544578 -0.01172964 17.1771974 -0.03521997 20.6796875 -0.06054688 C22.91145727 -0.06281974 25.14322931 -0.06352343 27.375 -0.0625 C28.41889893 -0.07170975 29.46279785 -0.08091949 30.53833008 -0.09040833 C36.77215614 -0.05083589 41.55923698 0.38057373 46.33203125 4.8359375 C49.87203088 9.46516778 50.81252223 11.5116596 50.83467102 17.30938721 C50.84540398 19.23155312 50.84540398 19.23155312 50.85635376 21.19255066 C50.85919417 22.62087989 50.86190588 24.04920937 50.86450195 25.47753906 C50.87076556 26.97547056 50.87741227 28.47340051 50.88441467 29.97132874 C50.90183491 34.04792402 50.91237941 38.12450757 50.9206202 42.20113087 C50.92576865 44.7476732 50.93184448 47.29421189 50.93813133 49.84075165 C50.95718706 57.8070789 50.97141686 65.77339685 50.9797433 73.73974252 C50.98951536 82.9376135 51.01583236 92.13524381 51.05624419 101.33302999 C51.08640101 108.44053835 51.10121179 115.54797771 51.10452431 122.65554881 C51.10687548 126.90132615 51.11584423 131.14684649 51.14098549 135.39255524 C51.16426351 139.38826252 51.16850072 143.38354356 51.15822411 147.37930107 C51.15772855 148.84422409 51.16405496 150.30916807 51.17778015 151.77402687 C51.19549715 153.77735332 51.18600826 155.78086483 51.17524719 157.78424072 C51.17763555 158.90438694 51.1800239 160.02453316 51.18248463 161.1786232 C50.39309092 166.15779184 47.80193036 169.25380613 44.19482422 172.64257812 C39.01521845 175.09140747 34.23233154 174.87277796 28.5703125 174.83203125 C27.39918915 174.83585815 26.2280658 174.83968506 25.02145386 174.84362793 C22.54863626 174.84634515 20.07578983 174.83899739 17.60302734 174.82226562 C13.83234993 174.80089376 10.06358633 174.82205603 6.29296875 174.84765625 C3.88541248 174.84501219 1.47785741 174.8398856 -0.9296875 174.83203125 C-2.05075897 174.84012817 -3.17183044 174.8482251 -4.32687378 174.85656738 C-11.98225768 174.76560571 -17.41753943 173.67099381 -23.37109375 168.51953125 C-23.82613281 167.95234375 -24.28117187 167.38515625 -24.75 166.80078125 C-25.22308594 166.23359375 -25.69617188 165.66640625 -26.18359375 165.08203125 C-27.40419537 163.15609928 -27.81052388 161.50844883 -28.3125 159.30078125 C-32.50076791 159.3821112 -36.68762793 159.4949182 -40.875 159.61328125 C-42.05642578 159.63583984 -43.23785156 159.65839844 -44.45507812 159.68164062 C-56.00135137 160.03740815 -63.44435252 164.38327395 -73.25 170.11328125 C-74.38937012 170.77473145 -75.52874023 171.43618164 -76.70263672 172.11767578 C-80.24252315 174.17312933 -83.77801039 176.23606463 -87.3125 178.30078125 C-88.40095215 178.9364502 -89.4894043 179.57211914 -90.61083984 180.22705078 C-92.70698402 181.45154378 -94.80301551 182.67622972 -96.89892578 183.90112305 C-100.82505366 186.19415081 -104.75398998 188.48232882 -108.68408203 190.76855469 C-110.34583608 191.73726808 -112.00589611 192.70889851 -113.66357422 193.68457031 C-140.36242992 209.39118904 -169.90812693 216.81233025 -200.875 210.67578125 C-201.5971167 210.53567627 -202.3192334 210.39557129 -203.06323242 210.2512207 C-216.60403165 207.22555454 -229.36796236 201.08395093 -241.8125 195.11328125 C-243.27608024 194.41720232 -244.73995644 193.72174543 -246.20410156 193.02685547 C-249.30639044 191.55318716 -252.40684016 190.07574641 -255.50585938 188.59521484 C-260.3595234 186.27689367 -265.21829728 183.96942946 -270.078125 181.6640625 C-276.79563684 178.4768258 -283.51170832 175.28658193 -290.2265625 172.09375 C-299.17554361 167.83919485 -308.12880602 163.59372711 -317.08425903 159.35281372 C-319.42279492 158.24524581 -321.76110336 157.137199 -324.09936523 156.02905273 C-331.45337578 152.54452595 -338.80956299 149.06475145 -346.17163086 145.59727478 C-349.65249432 143.95746051 -353.13229111 142.31538986 -356.61199951 140.67312622 C-358.26401395 139.89422426 -359.91654671 139.1164205 -361.56964111 138.33981323 C-391.29957533 124.37211707 -391.29957533 124.37211707 -396.3125 111.30078125 C-398.92220816 103.05410348 -398.20020027 93.00310471 -394.3125 85.30078125 C-389.72153321 77.63525791 -383.6562672 72.32044364 -374.97975159 69.86297607 C-364.02695516 67.5543804 -353.8733972 70.36220642 -343.44140625 73.53515625 C-341.94698332 73.9755264 -340.45209403 74.41431662 -338.95677185 74.85162354 C-335.04985974 75.9986438 -331.14943765 77.16632185 -327.25012207 78.33886719 C-323.31557536 79.51819989 -319.37539959 80.67838575 -315.43554688 81.83984375 C-310.29961154 83.35531663 -305.16574463 84.87731457 -300.03527737 86.41119766 C-292.14485134 88.76976374 -284.23672374 91.0582343 -276.3125 93.30078125 C-276.374375 92.02203125 -276.43625 90.74328125 -276.5 89.42578125 C-276.46844165 79.37444746 -272.5062482 71.04633842 -265.9375 63.61328125 C-255.77254245 54.6584377 -246.68775767 52.8576297 -233.15272522 52.9206562 C-230.98136508 52.92989986 -228.81084436 52.91939571 -226.63952637 52.90403748 C-220.47405013 52.86429532 -214.30864966 52.86273089 -208.14306641 52.86499023 C-204.35121011 52.86504167 -200.55981197 52.84571844 -196.76808167 52.81565666 C-194.64646216 52.80495342 -192.52576303 52.81688397 -190.4041748 52.82948303 C-180.40814182 52.75281005 -172.77307601 50.99567482 -164.453125 45.34765625 C-163.65430908 44.81454834 -162.85549316 44.28144043 -162.0324707 43.73217773 C-160.80983521 42.89988647 -160.80983521 42.89988647 -159.5625 42.05078125 C-151.64313269 36.78620604 -143.70570831 31.78011567 -135.3125 27.30078125 C-134.53261719 26.883125 -133.75273437 26.46546875 -132.94921875 26.03515625 C-120.29870242 19.83709706 -106.73689887 19.88177481 -93.0078125 20.0078125 C-91.18936517 20.01342224 -89.37091324 20.01768581 -87.55245972 20.02067566 C-82.81454488 20.0320161 -78.07691514 20.06138746 -73.33911133 20.0947876 C-68.48522801 20.12572421 -63.63129768 20.13923092 -58.77734375 20.15429688 C-49.28893867 20.18626982 -39.80074323 20.2373319 -30.3125 20.30078125 C-30.11696533 19.68372314 -29.92143066 19.06666504 -29.7199707 18.4309082 C-29.45788818 17.62097412 -29.19580566 16.81104004 -28.92578125 15.9765625 C-28.66837158 15.17387939 -28.41096191 14.37119629 -28.14575195 13.54418945 C-26.1049042 8.04950735 -22.25674534 5.16844355 -17.3125 2.30078125 C-11.62927258 -0.19901354 -6.09527102 -0.00532166 0 0 Z M-13.3125 21.30078125 C-14.05518095 23.87986176 -14.05518095 23.87986176 -13.94068909 26.76611328 C-13.95334305 27.87649963 -13.96599701 28.98688599 -13.97903442 30.13092041 C-13.96734222 31.34455261 -13.95565002 32.55818481 -13.94360352 33.80859375 C-13.95075882 35.090224 -13.95791412 36.37185425 -13.96528625 37.69232178 C-13.98380399 41.20490163 -13.97086035 44.71672265 -13.95119596 48.22927094 C-13.93481069 51.90562321 -13.94362216 55.58192737 -13.94871521 59.25830078 C-13.95323634 65.43208946 -13.93736545 71.60557519 -13.90942383 77.77929688 C-13.87737153 84.91628973 -13.8773874 92.05273619 -13.8946386 99.18976784 C-13.91050427 106.05624872 -13.90376997 112.92252934 -13.88670158 119.78900146 C-13.87983021 122.71080864 -13.88086432 125.63245533 -13.88824654 128.55426025 C-13.8973326 132.63413837 -13.87337309 136.71317285 -13.84594727 140.79296875 C-13.85247314 142.00660095 -13.85899902 143.22023315 -13.86572266 144.47064209 C-13.8529982 145.58102844 -13.84027374 146.69141479 -13.8271637 147.83544922 C-13.82435678 148.79998016 -13.82154985 149.76451111 -13.81865788 150.75827026 C-13.43393753 153.91992744 -13.43393753 153.91992744 -9.3125 157.30078125 C5.2075 157.30078125 19.7275 157.30078125 34.6875 157.30078125 C34.6875 111.10078125 34.6875 64.90078125 34.6875 17.30078125 C8.92837403 14.28589825 8.92837403 14.28589825 -13.3125 21.30078125 Z M-132.625 45.42578125 C-133.33793213 45.80903564 -134.05086426 46.19229004 -134.78540039 46.5871582 C-141.69953389 50.37734866 -148.18599386 54.74732027 -154.68896484 59.19335938 C-166.46545872 67.22616783 -176.33032333 69.74746308 -190.63913536 69.6809063 C-192.81422564 69.67165159 -194.98848004 69.68217709 -197.16352844 69.69752502 C-203.33825714 69.73724937 -209.51290865 69.73882515 -215.68774414 69.73657227 C-219.48722847 69.73652096 -223.28625326 69.75577833 -227.08561134 69.78590584 C-229.21507724 69.79663989 -231.34363289 69.78466296 -233.47306824 69.77207947 C-241.46886067 69.83355448 -247.60928761 70.115836 -253.81962585 75.64183044 C-257.50703946 79.60845833 -259.25969526 83.90147605 -259.34375 89.3125 C-258.9171815 94.91121158 -256.92364107 98.8298805 -252.78515625 102.74609375 C-247.71433022 107.08543143 -244.57229461 107.45338362 -238.08666992 107.47436523 C-237.23609512 107.48105225 -236.38552032 107.48773926 -235.50917053 107.49462891 C-233.6583367 107.50869755 -231.80748532 107.5205858 -229.95662498 107.53057671 C-227.02719657 107.54696323 -224.09789772 107.57020092 -221.16853333 107.59547424 C-212.83825114 107.66630932 -204.50791548 107.72634357 -196.17749023 107.77758789 C-191.08524627 107.80939393 -185.99315005 107.8506762 -180.90102577 107.89778328 C-178.9597979 107.9137965 -177.01853597 107.92612121 -175.07726097 107.93469048 C-172.36019284 107.94685524 -169.64347135 107.9710109 -166.92651367 107.99780273 C-165.72389389 107.99868645 -165.72389389 107.99868645 -164.49697876 107.99958801 C-160.36335027 108.05355147 -156.97769303 108.29797056 -153.3125 110.30078125 C-151.75475064 113.41627997 -151.74769378 116.90522005 -152.3125 120.30078125 C-153.59400082 121.89984226 -153.59400082 121.89984226 -155.3125 123.30078125 C-158.28779423 123.60241003 -161.05453652 123.72072873 -164.03149414 123.70483398 C-165.36867996 123.71512886 -165.36867996 123.71512886 -166.73287964 123.72563171 C-169.68796615 123.74397062 -172.64252487 123.74004953 -175.59765625 123.734375 C-177.654497 123.73893593 -179.71133622 123.74424124 -181.76817322 123.7502594 C-186.08664116 123.75920631 -190.40492438 123.75675236 -194.72338867 123.74682617 C-200.2390154 123.73538002 -205.75399777 123.75547305 -211.26953983 123.78474331 C-215.52227289 123.80316274 -219.77485353 123.80280063 -224.0276165 123.79710579 C-226.05964494 123.79695303 -228.09168401 123.80295945 -230.12367439 123.81539726 C-252.48291223 123.93289134 -252.48291223 123.93289134 -261.56054688 116.82128906 C-266.73247947 112.88507813 -273.17622499 111.67335583 -279.34375 109.97265625 C-280.73956904 109.57661664 -282.13502927 109.17931053 -283.53015137 108.78082275 C-287.21050171 107.73311595 -290.895268 106.7018931 -294.58129883 105.67437744 C-298.21306396 104.65933903 -301.84083255 103.63025264 -305.46875 102.6015625 C-309.77894432 101.37975749 -314.08967085 100.16008855 -318.40380859 98.95227051 C-325.65412035 96.92005461 -332.88830857 94.8459146 -340.1015625 92.68554688 C-341.5230358 92.26243367 -342.94454402 91.83943773 -344.36608887 91.41656494 C-347.0284004 90.62429442 -349.6860857 89.81850457 -352.34191895 89.00482178 C-363.03379258 85.5565732 -363.03379258 85.5565732 -373.5625 87.98828125 C-378.49177536 91.92047677 -378.49177536 91.92047677 -380.6953125 97.6328125 C-380.88502955 101.85085487 -380.56774904 104.73710629 -378.8125 108.61328125 C-372.57003239 115.32393393 -363.54803236 118.69227365 -355.35461426 122.48504639 C-352.34725356 123.87726144 -349.34535208 125.28108564 -346.34289551 126.68383789 C-344.75358051 127.42614679 -343.16397649 128.16783716 -341.57409668 128.90893555 C-333.67613059 132.59128109 -325.79989232 136.31889956 -317.92681885 140.05410767 C-315.542451 141.18529284 -313.15775107 142.31577504 -310.77294922 143.44604492 C-307.55751779 144.97000528 -304.34218974 146.49418336 -301.12695312 148.01855469 C-296.35071241 150.28285554 -291.57387232 152.54588962 -286.796875 154.80859375 C-285.62123489 155.36554428 -285.62123489 155.36554428 -284.42184448 155.93374634 C-280.48573176 157.79833266 -276.54918822 159.66199959 -272.61181641 161.52392578 C-265.2751704 164.99448412 -257.94283514 168.47332984 -250.62481689 171.98303223 C-247.21666574 173.61691751 -243.80617322 175.24588262 -240.39550781 176.87451172 C-238.79049816 177.64258249 -237.18660301 178.41298779 -235.58398438 179.18603516 C-206.18216934 193.36594552 -177.08665663 201.26220016 -145.01806641 190.29882812 C-133.39761961 186.0283075 -122.97726119 179.55497213 -112.42236328 173.17236328 C-107.35343925 170.12177672 -102.23908645 167.14982812 -97.125 164.17578125 C-95.14192093 163.02214599 -93.15884796 161.86850025 -91.17578125 160.71484375 C-90.20721191 160.1518457 -89.23864258 159.58884766 -88.24072266 159.00878906 C-85.29414021 157.29007214 -82.35588348 155.55770101 -79.41796875 153.82421875 C-77.54972908 152.73264507 -75.68125 151.64148102 -73.8125 150.55078125 C-72.97050049 150.0491748 -72.12850098 149.54756836 -71.26098633 149.03076172 C-70.46329834 148.56814941 -69.66561035 148.10553711 -68.84375 147.62890625 C-68.15861328 147.22575195 -67.47347656 146.82259766 -66.76757812 146.40722656 C-55.20839524 141.19777779 -42.89286883 142.78464159 -30.3125 142.30078125 C-30.3125 107.65078125 -30.3125 73.00078125 -30.3125 37.30078125 C-43.595 37.21828125 -56.8775 37.13578125 -70.5625 37.05078125 C-74.73422852 37.01436523 -78.90595703 36.97794922 -83.20410156 36.94042969 C-86.99068559 36.92704016 -86.99068559 36.92704016 -90.77728271 36.91900635 C-92.44513232 36.9129216 -94.11296592 36.89897471 -95.78070068 36.878479 C-109.54581857 36.71798015 -120.40737808 38.73622166 -132.625 45.42578125 Z " fill="#000000" transform="translate(429.3125,246.69921875)"/>
<path d="M0 0 C0.74507812 0.64324219 1.49015625 1.28648438 2.2578125 1.94921875 C8.97202447 8.21491048 15.88377548 16.76755097 20 25 C20.83084044 25.00146656 21.66168087 25.00293312 22.51769829 25.00444412 C42.75842008 25.04153818 62.99897478 25.10058741 83.23956108 25.18390274 C93.02787415 25.22366758 102.81610712 25.25607306 112.60449219 25.27099609 C121.13866785 25.28402585 129.67266708 25.31102431 138.20674336 25.35461307 C142.72313554 25.37719811 147.23931035 25.39291246 151.75576401 25.39188385 C156.01254005 25.39113549 160.26883611 25.40915664 164.5254879 25.44116783 C166.08222068 25.44964058 167.63900745 25.45143469 169.1957531 25.44580269 C179.51609434 25.41345793 189.46248753 25.9007918 197.3125 33.4375 C197.90675781 33.99308594 198.50101562 34.54867187 199.11328125 35.12109375 C200.46894969 36.47114865 201.82144143 37.82439626 203.171875 39.1796875 C205.49949001 41.50087264 207.85023283 43.79104776 210.21484375 46.07421875 C211.78930693 47.6117289 213.36351926 49.14949597 214.9375 50.6875 C215.72318359 51.43966797 216.50886719 52.19183594 217.31835938 52.96679688 C225.61486958 61.12445336 232.78274939 70.92086627 233 83 C231.78223302 95.89930947 222.54127425 104.15443843 214 113 C213.3817334 113.64549805 212.7634668 114.29099609 212.12646484 114.95605469 C201.25287727 126.26767125 191.09412819 136.81156351 174.63671875 137.99609375 C165.27654484 138.00996067 155.68199644 135.52257362 148.8203125 128.89453125 C147.1319003 126.97896319 145.53083002 125.04279635 144 123 C141.01792981 125.42726644 138.29062479 127.66901066 135.75 130.5625 C128.93127768 136.60636751 121.30555809 137.67838644 112.3984375 137.37890625 C102.21473499 136.24348195 96.01690614 131.01690614 89 124 C88.53851563 124.44730469 88.07703125 124.89460937 87.6015625 125.35546875 C78.44123894 133.84596628 69.40190345 137.54390563 56.93359375 137.3828125 C52.94475328 136.99462346 50.56132391 136.12454521 47.0625 134.25 C43.52616695 132.26388291 43.52616695 132.26388291 39.65234375 132.5234375 C37.63806489 133.55433884 35.85634559 134.71281697 34 136 C31 137 31 137 28.65234375 136.82421875 C25.36820411 136.65883042 23.11069183 136.88344704 20 138 C17.67073842 140.55503815 15.90341636 143.10138098 14.05249023 146.00097656 C6.80109818 157.25240736 -3.56750486 167.06674488 -15 174 C-15.86109375 174.5671875 -16.7221875 175.134375 -17.609375 175.71875 C-41.60721844 190.83341383 -71.08550679 195.13767439 -98.58203125 189.03125 C-109.13601908 186.45666519 -118.5679877 182.34181436 -128 177 C-128.98484375 176.44441406 -129.9696875 175.88882813 -130.984375 175.31640625 C-157.69271968 159.22192687 -174.24906134 134.04403597 -182.71875 104.4921875 C-189.35756847 76.47246838 -182.28844104 47.12876199 -167.72363281 22.87451172 C-150.35321832 -4.16049126 -126.14687314 -18.48343686 -95.83984375 -26.875 C-61.55479843 -34.14605527 -25.92144353 -22.45402966 0 0 Z M-139 15 C-139.77085937 15.77085938 -140.54171875 16.54171875 -141.3359375 17.3359375 C-147.29139068 23.61660314 -151.75045819 30.48157987 -156 38 C-156.47308594 38.82113281 -156.94617188 39.64226562 -157.43359375 40.48828125 C-168.06343681 60.1915729 -170.60593342 84.95688224 -164.2578125 106.3984375 C-158.50227105 122.87859035 -150.15805514 135.66650395 -138 148 C-137.28199219 148.73089844 -136.56398438 149.46179688 -135.82421875 150.21484375 C-117.08963132 168.03210674 -92.1378662 174.96039239 -66.8515625 174.34375 C-42.66729531 173.25401797 -21.33678058 160.68173975 -4.98046875 143.453125 C-1.02633145 139.054859 2.01291858 134.18112304 5 129.09375 C7.12612718 125.80489702 8.89597164 123.4039709 12 121 C14.86182504 120.55256746 17.21384539 120.34366741 20.0625 120.375 C25.41973233 120.45514127 25.41973233 120.45514127 30.390625 118.671875 C32.58164782 116.39576392 33.69591697 113.85656282 35 111 C36.8076121 109.1923879 39.11421868 109.37547243 41.53125 109.37109375 C46.95245965 110.75212975 50.91775104 115.36446179 55 119 C58.29576093 120.64788046 61.45158462 120.62583353 65 120 C71.11746416 117.16124523 75.20059037 112.80112411 79.45703125 107.70703125 C81.51901781 105.42579549 82.95561624 104.51977284 86 104 C91.01125766 104.04099188 95.01031705 104.82871355 99 108 C100.81894277 109.98353388 102.5694188 112.01821607 104.32421875 114.05859375 C108.04352632 118.42779013 108.04352632 118.42779013 113.28515625 120.4453125 C117.97876123 120.77096232 121.1363568 120.43174927 124.8125 117.375 C126.90334689 115.30373949 128.77448213 113.09843384 130.625 110.8125 C133.60532113 107.28317235 135.65322891 105.31894037 140.328125 104.68359375 C146.12059795 104.41478138 149.54532889 105.02953228 154 109 C155.27737441 110.51534352 156.54762972 112.03670363 157.8125 113.5625 C161.73043164 118.059217 165.00631767 120.36959652 171 121 C177.50047095 121.08578334 181.88625828 119.54647058 186.62890625 115.0859375 C187.49265869 114.27833984 188.35641113 113.47074219 189.24633789 112.63867188 C190.15504639 111.76791016 191.06375488 110.89714844 192 110 C193.40270142 108.6706543 193.40270142 108.6706543 194.83374023 107.31445312 C197.25665986 104.99671737 199.65828829 102.66192809 202.04394531 100.30615234 C203.02373807 99.34311661 204.00888891 98.38550523 204.99902344 97.43310547 C206.4596672 96.02739108 207.90300609 94.60575751 209.34375 93.1796875 C210.19130859 92.35194824 211.03886719 91.52420898 211.91210938 90.67138672 C214.39271062 87.4975398 215.26493347 84.94504552 216 81 C212.48270254 70.07786579 201.69943539 61.38145153 193.2890625 54.0390625 C190.57533415 51.62171404 188.05967292 49.05588353 185.5703125 46.41015625 C181.69021966 42.92579427 178.30282113 42.75115217 173.17469788 42.75517273 C172.14580788 42.75177587 172.14580788 42.75177587 171.09613222 42.74831039 C168.79845018 42.74301469 166.50103778 42.7518452 164.20336914 42.76049805 C162.55573948 42.75938515 160.90811022 42.75732733 159.26048279 42.75439453 C155.71262977 42.74967156 152.16484291 42.75079321 148.61699104 42.75617027 C143.00742436 42.76377322 137.39798549 42.7531325 131.78843689 42.7389679 C115.83722439 42.70120785 99.88606963 42.68304685 83.93481445 42.69458008 C75.12488992 42.70079302 66.31517143 42.68923416 57.5052976 42.65813476 C51.92844109 42.63945964 46.3521672 42.64281847 40.77532017 42.66230237 C37.30602371 42.66917869 33.83704401 42.6552379 30.36780739 42.63535309 C28.7589631 42.63030109 27.1500658 42.63380298 25.54126358 42.64648628 C23.34415546 42.66257646 21.14929263 42.64797094 18.95228577 42.6257782 C17.72320024 42.62561046 16.4941147 42.62544271 15.22778416 42.62526989 C11.07768416 41.82133368 9.65707298 40.2147223 7 37 C5.51969164 34.78764134 4.11894451 32.58928074 2.75 30.3125 C-10.30962042 9.46130324 -30.47200499 -3.08206235 -54 -9 C-84.71471492 -15.86945029 -116.68983206 -7.31016794 -139 15 Z " fill="#000000" transform="translate(232,81)"/>
<path d="M0 0 C7.71269745 7.00672972 12.74252798 17.04910016 17.60742188 26.11865234 C18.09193817 27.02105904 18.09193817 27.02105904 18.58624268 27.94169617 C19.37723702 29.41516541 20.16723507 30.88916943 20.95703125 32.36328125 C21.84640633 32.36198243 22.7357814 32.36068361 23.65210724 32.35934544 C45.30248342 32.33013138 66.95254368 32.33951573 88.60288239 32.39174747 C99.07291054 32.41607785 109.54264938 32.42739172 120.01269531 32.40795898 C129.13947924 32.39105252 138.26585847 32.3986745 147.39258909 32.43562883 C152.22432192 32.45433926 157.05537045 32.46084918 161.88710022 32.43797493 C166.43796005 32.4168182 170.98756809 32.42853619 175.53831863 32.46512604 C177.20555624 32.47279959 178.87289867 32.46861296 180.54006577 32.45146751 C194.69643632 32.31707109 194.69643632 32.31707109 199.8013916 36.72996521 C200.87997359 37.9173524 201.93418639 39.12755643 202.95703125 40.36328125 C204.06545221 41.38659117 205.18702584 42.39607396 206.328125 43.3828125 C207.35108627 44.31289457 208.37323815 45.24386773 209.39453125 46.17578125 C209.92240234 46.65208984 210.45027344 47.12839844 210.99414062 47.61914062 C214.40932444 50.73620827 215.83611945 52.05743386 216.26953125 56.73828125 C215.95703125 60.36328125 215.95703125 60.36328125 214.26953125 62.73828125 C211.59348071 64.6187492 210.23452998 65.28706035 206.95703125 65.36328125 C201.35007157 63.45444618 198.87385526 61.44517526 195.10812378 56.75460815 C190.91581953 52.16264362 187.27171727 50.33480837 180.94827271 50.03616333 C177.807397 49.96272056 174.67983575 50.02587243 171.53955078 50.10205078 C169.802218 50.10347907 168.06487531 50.09998035 166.32756042 50.09196472 C162.60646825 50.08522712 158.88783529 50.11284554 155.16714859 50.16788101 C149.28373954 50.25463613 143.4017457 50.26329894 137.51779175 50.26193237 C128.21628426 50.2689003 118.91594317 50.32745482 109.61481178 50.40839851 C92.94312609 50.5526857 76.27120354 50.62731025 59.5989331 50.65538299 C53.7499944 50.66752253 47.90215362 50.70831753 42.05356145 50.77243352 C38.42052232 50.80797752 34.78758702 50.82343768 31.15439796 50.83399391 C29.46968123 50.84331998 27.7849869 50.86132952 26.10046577 50.88864326 C23.80106281 50.92489363 21.50352952 50.93039781 19.20388794 50.92849731 C17.91752504 50.94001894 16.63116215 50.95154057 15.30581856 50.96341133 C11.06785113 50.2039329 9.64492789 48.64590082 6.95703125 45.36328125 C5.5065918 43.02661133 5.5065918 43.02661133 4.34375 40.6328125 C3.90474365 39.75197998 3.4657373 38.87114746 3.01342773 37.96362305 C2.56169189 37.04363525 2.10995605 36.12364746 1.64453125 35.17578125 C-7.20841017 17.79481783 -18.20359443 6.15284566 -36.875 -0.671875 C-51.57654308 -4.99585826 -67.45072288 -3.55090974 -81.29296875 2.87109375 C-97.14840229 11.56731367 -107.98564593 24.76769076 -113.15625 42.09375 C-116.03511143 54.23211561 -114.96693222 67.9824223 -110.04296875 79.36328125 C-109.65367188 80.27980469 -109.264375 81.19632812 -108.86328125 82.140625 C-101.07873526 98.1933722 -87.39581615 108.33065236 -70.98828125 114.41796875 C-56.9262892 118.9312341 -41.0177783 117.13172679 -27.83984375 110.83203125 C-24.1100209 108.84018868 -20.56062359 106.70838448 -17.04296875 104.36328125 C-13.16576541 104.0333065 -10.26405985 104.06250189 -7.04296875 106.36328125 C-5.20559567 108.81311203 -5.03855423 110.1602135 -5.10546875 113.23828125 C-6.62944272 118.31819448 -9.64307715 121.4318942 -13.9609375 124.3046875 C-35.28130367 134.87571732 -56.64245288 138.28651791 -79.6875 130.6796875 C-99.62919335 122.85622922 -115.03547361 109.41395187 -125.04296875 90.36328125 C-133.14945292 71.29765139 -135.53026644 50.07604788 -128.04296875 30.36328125 C-124.24969695 21.16056746 -119.60689908 12.8822407 -113.04296875 5.36328125 C-112.53636719 4.70328125 -112.02976562 4.04328125 -111.5078125 3.36328125 C-100.48684146 -10.50093784 -83.20981644 -17.26236917 -66.23046875 -20.32421875 C-40.83274061 -22.74060179 -19.72776499 -15.80484423 0 0 Z " fill="#000000" transform="translate(212.04296875,105.63671875)"/>
<path d="M0 0 C2.81831785 2.59581908 3.85564038 4.23008205 4.5625 8 C3.78698584 12.13607554 2.38677089 13.54999553 -1 16 C-4.68717269 16.51749792 -6.97380129 16.4590889 -10.375 14.9375 C-12.81081016 12.03326481 -12.93550991 9.74042509 -13 6 C-11.76993806 3.08669541 -10.69675518 1.52857289 -8.1875 -0.375 C-5.04769336 -1.27208761 -3.11164779 -0.97238994 0 0 Z " fill="#000000" transform="translate(444,287)"/>
</svg>
