<svg id="Calque_1" data-name="Calque 1" xmlns="http://www.w3.org/2000/svg" viewBox="0 0 163.91 148.75"><defs><style>.cls-1{fill:#3c3c3b;}</style></defs><path class="cls-1" d="M157.79,71.53v5.69c0,.31-.09.62-.12.93-.34,3-.53,6-1,8.9a71.15,71.15,0,0,1-12,29,74.64,74.64,0,0,1-23.53,21.8,76.06,76.06,0,0,1-31.69,10.28c-1.48.14-3,.25-4.46.37H78.8c-.29,0-.58-.09-.87-.11-1.89-.17-3.78-.28-5.66-.51a75.93,75.93,0,0,1-55.38-35.43,71.74,71.74,0,0,1-10.4-31c-.13-1.42-.24-2.84-.36-4.26V71.53c.08-.92.16-1.84.23-2.76a71.4,71.4,0,0,1,7.53-27.06A73.9,73.9,0,0,1,40.58,12.27,75.49,75.49,0,0,1,74.84.6C76.28.47,77.73.37,79.18.25H85c.33,0,.66.11,1,.12A76.57,76.57,0,0,1,135,21.46,73.08,73.08,0,0,1,157.57,69C157.63,69.86,157.71,70.7,157.79,71.53ZM138.84,32.76l-.46-.61a71.23,71.23,0,0,0-33-23.28A72.67,72.67,0,0,0,74.57,5.4a71.54,71.54,0,0,0-21.08,5.4A69.16,69.16,0,0,0,27.43,29.88C14.53,45.12,9.19,62.73,11.36,82.56a65.43,65.43,0,0,0,9.26,27c.77,1.28,1.6,2.51,2.42,3.8L43.49,99.1c-.1-.19-.16-.31-.22-.41A28.68,28.68,0,0,1,39,84.41a27.48,27.48,0,0,1,3-13.85c2.3-4.41,4.69-8.77,7-13.14q8.61-16.06,17.24-32.1a3,3,0,0,1,1-1.05c.93-.63,2.56-.46,3.47,1.3q9.54,18.49,19.15,37c.54,1,1.08,2.08,1.66,3.18ZM25.93,117.07c.14.19.24.34.36.49a69.61,69.61,0,0,0,16,14.4,71.43,71.43,0,0,0,36.21,11.7,70.58,70.58,0,0,0,28.64-4.41c17.77-6.72,31-18.55,39.32-35.66a66.38,66.38,0,0,0,6.13-37.26,66.34,66.34,0,0,0-7.93-24.73c-.94-1.69-2-3.32-3-5L93.71,69.92A29,29,0,0,1,85.21,107a27.9,27.9,0,0,1-16.86,5.59,28.84,28.84,0,0,1-22-9.71ZM87.58,68.42l-19.21-37-.33.54q-8.85,16.5-17.7,33c-1.56,2.91-3.32,5.74-4.62,8.76-3.21,7.44-2.7,14.77,1.2,21.87.14.26.31.51.5.81l7-4.87-.32-.64a18.23,18.23,0,0,1-1.86-7.16,2.32,2.32,0,0,1,2.25-2.53,2.38,2.38,0,0,1,2.45,2.23c0,.42.07.84.13,1.25a12.77,12.77,0,0,0,1.29,4.11Zm2.14,4.27L61.18,92.55a24.78,24.78,0,0,0,3.37,1.7,48.16,48.16,0,0,0,4.78,1.14A2.35,2.35,0,0,1,71.22,98a2.32,2.32,0,0,1-2.56,2,19.71,19.71,0,0,1-10-3.69c-.46-.35-.91-.72-1.38-1.09l-6.92,4.82A24.18,24.18,0,0,0,82.63,103C93.81,94.55,94.25,80.7,89.72,72.69Z"/><path class="cls-1" d="M125,110.63a14.24,14.24,0,1,1-27.21-5.93c1.18-2.56,2.63-5,4-7.47q3.45-6.44,6.9-12.86A2.67,2.67,0,0,1,110.08,83a2.38,2.38,0,0,1,3,1.34q2.55,4.9,5.09,9.81c1.73,3.32,3.44,6.65,5.18,10A14.14,14.14,0,0,1,125,110.63ZM110.85,90.22c-.23.44-.39.73-.55,1-2.62,4.9-5.23,9.81-7.88,14.69a9.55,9.55,0,0,0,15.65,10.79,9.44,9.44,0,0,0,1.1-10.48c-2.12-4.06-4.22-8.14-6.34-12.21Z"/></svg>