<svg id="Calque_1" data-name="Calque 1" xmlns="http://www.w3.org/2000/svg" viewBox="0 0 170.04 149.75"><defs><style>.cls-1{fill:#3c3c3b;}</style></defs><path class="cls-1" d="M157.45,90.47l-4.67-1a69.41,69.41,0,1,0-135.57-.28l-4.68,1a74.19,74.19,0,1,1,144.92.29Z"/><path class="cls-1" d="M57.89,116.12l1.62,1.16-5.4,7.55-1.55-1.12-.19-7.46L48.9,121.1l-1.63-1.16,5.4-7.55,1.55,1.11L54.4,121Z"/><path class="cls-1" d="M66.66,121.17a4.73,4.73,0,0,1,.93,2.3,4.55,4.55,0,0,1-.4,2.5,4.7,4.7,0,0,1-3.95,2.79,5.26,5.26,0,0,1-2.56-.47,5.14,5.14,0,0,1-2-1.61,4.7,4.7,0,0,1-.53-4.81,4.59,4.59,0,0,1,1.6-2,4.66,4.66,0,0,1,2.34-.83,5.51,5.51,0,0,1,4.62,2.08ZM62.41,121a2.84,2.84,0,0,0-1.39.54,3,3,0,0,0-1,1.2,2.93,2.93,0,0,0-.26,1.53,2.85,2.85,0,0,0,.52,1.4,2.55,2.55,0,0,0,1.13.95,2.61,2.61,0,0,0,1.45.23,2.84,2.84,0,0,0,1.37-.56,3,3,0,0,0,1-1.22,2.94,2.94,0,0,0,.27-1.51,2.84,2.84,0,0,0-.49-1.39,2.73,2.73,0,0,0-1.13-.94A2.85,2.85,0,0,0,62.41,121Z"/><path class="cls-1" d="M76,123.32l1.94.45-2.1,9-1.86-.43-3-6.82-1.35,5.81-2-.46,2.1-9,1.86.44,3,6.85Z"/><path class="cls-1" d="M81.18,124.11h7.76v1.78H86.1v7.51H84v-7.51H81.18Z"/><path class="cls-1" d="M89.47,124l7-1.11.27,1.71-4.9.78.31,2,4.42-.7.27,1.72-4.41.7.32,2,5-.8.27,1.71-7.12,1.13Z"/><path class="cls-1" d="M102.51,123a4.73,4.73,0,0,0-1.38.19,1.52,1.52,0,0,0-.76.46.64.64,0,0,0-.12.65.84.84,0,0,0,.67.57,7.29,7.29,0,0,0,1.51.06,12.31,12.31,0,0,1,1.67,0,2.79,2.79,0,0,1,1.26.46,2.32,2.32,0,0,1,.88,1.26,2.51,2.51,0,0,1,0,1.6,2.85,2.85,0,0,1-.92,1.33,4.85,4.85,0,0,1-1.67.9,6.13,6.13,0,0,1-2.22.32,6,6,0,0,1-2.13-.43l.25-1.89a5.77,5.77,0,0,0,1.86.46,4.32,4.32,0,0,0,1.7-.16,1.86,1.86,0,0,0,.89-.55.76.76,0,0,0,.13-.77.77.77,0,0,0-.42-.48,1.9,1.9,0,0,0-.71-.16,10.18,10.18,0,0,0-1.09,0,12.43,12.43,0,0,1-1.64,0,2.77,2.77,0,0,1-1.25-.44,2.29,2.29,0,0,1-.87-1.24,2.5,2.5,0,0,1,0-1.53,2.78,2.78,0,0,1,.89-1.31,5,5,0,0,1,1.69-.92,6.56,6.56,0,0,1,1.87-.33,6.91,6.91,0,0,1,1.8.19l-.23,1.9A7.61,7.61,0,0,0,102.51,123Z"/><path class="cls-1" d="M104.09,120.47l6.91-3.53.81,1.59-2.53,1.29,3.41,6.68-1.87,1-3.4-6.69-2.52,1.28Z"/><path class="cls-1" d="M111.46,116.62l5.72-4.14,1,1.4-4,2.92,1.18,1.63,3.62-2.62,1,1.41-3.62,2.62,1.2,1.66,4.15-3,1,1.41-5.85,4.23Zm1.63-4.71,1.87-.49-.61,2.24-1.28.76Z"/><path class="cls-1" d="M27.7,106.94a5.92,5.92,0,0,0-.52-1.66,2.13,2.13,0,0,0-.73-.84.82.82,0,0,0-.83,0,1,1,0,0,0-.56.95,8.82,8.82,0,0,0,.24,1.87,15.81,15.81,0,0,1,.32,2.07,3.54,3.54,0,0,1-.31,1.65A2.86,2.86,0,0,1,24,112.32a3.15,3.15,0,0,1-2,.38,3.61,3.61,0,0,1-1.84-.85A6.18,6.18,0,0,1,18.68,110a8,8,0,0,1-.86-2.68,7.48,7.48,0,0,1,.08-2.72l2.38-.08a7,7,0,0,0-.17,2.38,5.44,5.44,0,0,0,.56,2.07,2.29,2.29,0,0,0,.86,1,1,1,0,0,0,1,0,1,1,0,0,0,.5-.61,2.52,2.52,0,0,0,0-.92,13.15,13.15,0,0,0-.25-1.34,14.26,14.26,0,0,1-.33-2,3.39,3.39,0,0,1,.28-1.62,2.82,2.82,0,0,1,1.33-1.34,3.08,3.08,0,0,1,1.88-.36,3.43,3.43,0,0,1,1.81.82,6,6,0,0,1,1.49,1.87,8.31,8.31,0,0,1,.8,2.24,8,8,0,0,1,.15,2.25l-2.39.13A8.53,8.53,0,0,0,27.7,106.94Z"/><path class="cls-1" d="M26.7,117.19a2.54,2.54,0,0,0,.58,1.93,2.41,2.41,0,0,0,1.68,1,2.72,2.72,0,0,0,2-.66l5.4-4.16,1.6,2.07-5.4,4.16a5.37,5.37,0,0,1-2.47,1.12,4.15,4.15,0,0,1-2.45-.36,5.78,5.78,0,0,1-2.15-1.79,5.94,5.94,0,0,1-1.2-2.55,4.12,4.12,0,0,1,.26-2.48,5.29,5.29,0,0,1,1.71-2.12l5.39-4.15,1.6,2.07-5.39,4.16A2.65,2.65,0,0,0,26.7,117.19Z"/><path class="cls-1" d="M36.52,131.86l.85-3.69-.18-.17-1.8-1.62-2.22,2.46-1.94-1.75L39,118.47l3.74,3.37A5.36,5.36,0,0,1,44.65,125a3.71,3.71,0,0,1-1.08,3,4.52,4.52,0,0,1-1.94,1.33,3.57,3.57,0,0,1-2.17,0l-.74,4.49Zm.34-7.11,1.79,1.62a2.52,2.52,0,0,0,1.6.75,1.84,1.84,0,0,0,1.42-.7,1.81,1.81,0,0,0,.54-1.48,2.58,2.58,0,0,0-.92-1.48l-1.8-1.62Z"/><path class="cls-1" d="M50.51,127.87l2.28,1.3-4.64,8.08,4.32,2.47-1.14,2-6.58-3.78Z"/><path class="cls-1" d="M57.86,132l8.23,3.22-.79,2L59.51,135l-.92,2.35,5.2,2-.79,2-5.2-2-.94,2.39,6,2.33-.79,2-8.4-3.28Z"/><path class="cls-1" d="M72.6,139.14a6.16,6.16,0,0,0-1.61-.69,2,2,0,0,0-1.1,0,.79.79,0,0,0-.55.62,1,1,0,0,0,.36,1,9.11,9.11,0,0,0,1.58,1,13.64,13.64,0,0,1,1.77,1.1,3.39,3.39,0,0,1,1.06,1.3,2.82,2.82,0,0,1,.14,1.91,3.23,3.23,0,0,1-1,1.75,3.72,3.72,0,0,1-1.84.84,6.4,6.4,0,0,1-2.37-.09,8.13,8.13,0,0,1-2.6-1.09,7.4,7.4,0,0,1-2-1.83l1.48-1.86a7.14,7.14,0,0,0,1.7,1.68,5.45,5.45,0,0,0,1.94.91,2.25,2.25,0,0,0,1.3,0,.94.94,0,0,0,.63-.74,1,1,0,0,0-.14-.78,2.22,2.22,0,0,0-.66-.63c-.29-.19-.68-.42-1.18-.69a14.2,14.2,0,0,1-1.76-1.06,3.27,3.27,0,0,1-1.05-1.27,2.73,2.73,0,0,1-.15-1.88,3.06,3.06,0,0,1,.94-1.67,3.59,3.59,0,0,1,1.8-.84,6.12,6.12,0,0,1,2.39.09,8.32,8.32,0,0,1,2.22.84,8,8,0,0,1,1.81,1.35l-1.45,1.91A8.82,8.82,0,0,0,72.6,139.14Z"/><path class="cls-1" d="M89.39,149.51l-.94-2.25-5.37.06-.89,2.26-2.7,0L84.42,138l2.7,0,5.07,11.55Zm-5.46-4.31,3.66,0-1.87-4.49Z"/><path class="cls-1" d="M100.29,136.16l2.44-.49L105,147l-2.34.47-7-6.2,1.47,7.31-2.46.5-2.29-11.38,2.34-.47,7,6.23Z"/><path class="cls-1" d="M104.43,134.93l2.47-.85,3.78,11-2.47.85Z"/><path class="cls-1" d="M108.78,133.69l2.58-1.35,6.52,4.62-.15-8,2.56-1.34,5.41,10.26-2.09,1.1L120,132.06l.18,7.43-1.5.79-6-4.35,3.65,6.93-2.08,1.1Z"/><path class="cls-1" d="M135.58,130.11,133.44,129l-4.14,3.41.73,2.32-2.09,1.72-3.48-12.16,2.08-1.72,11.2,5.81Zm-7,.08,2.83-2.33-4.27-2.32Z"/><path class="cls-1" d="M139,122.54a2.53,2.53,0,0,0,1.77-1,2.4,2.4,0,0,0,.63-1.85,2.77,2.77,0,0,0-1.07-1.8l-5.2-4.4,1.7-2,5.19,4.41a5.26,5.26,0,0,1,1.62,2.18,4.16,4.16,0,0,1,.16,2.47,5.79,5.79,0,0,1-1.3,2.48,6,6,0,0,1-2.24,1.71,4.35,4.35,0,0,1-2.49.26,5.32,5.32,0,0,1-2.42-1.23l-5.2-4.4,1.7-2,5.19,4.4A2.73,2.73,0,0,0,139,122.54Z"/><path class="cls-1" d="M137.24,111l1.53-2.64,4.28-.32-1.85-3.89,1.54-2.68,2.88,6.12L153,107l-1.57,2.72-4.71.43,2,4.26-1.53,2.65-3.06-6.57Z"/><path class="cls-1" d="M49.05,108.16a3.31,3.31,0,0,1-2-5.92l68.09-53.4a3.32,3.32,0,0,1,4.1,5.22l-68.1,53.4A3.34,3.34,0,0,1,49.05,108.16Z"/><path class="cls-1" d="M41.89,73.42c2.59,4.56,6.79,6.29,11.84,6.14,1.24,0,1.78.2,2.08,1.51.89,3.94,2,7.84,3,11.74.24.88.14,1.36-.78,1.81a5.33,5.33,0,0,0-2.82,6.22,5.49,5.49,0,0,0,5.5,4.28H79a3.69,3.69,0,0,1,1.73.25,27.72,27.72,0,0,0,14.16,2.37c6.1-.38,11.9-1.77,17.06-5.26a22.82,22.82,0,0,0,7.75-8.6,2.1,2.1,0,0,1,1.7-1.33,10.68,10.68,0,0,0,.13-21,1.6,1.6,0,0,1-1.37-1.07c-4.54-10.31-12.4-16.44-23.48-18.2a29,29,0,0,0-18.88,3.49c-.43.23-.85.49-1.34.77-.21-1-.39-2-.64-2.94-.16-.61.16-.89.56-1.22A41.23,41.23,0,0,0,91.08,26.82a26.22,26.22,0,0,0,.48-5.16c0-1.79-1-2.48-2.73-1.89a34.09,34.09,0,0,0-11.1,6.67c-.18.15-.35.32-.68.63a50,50,0,0,0-2.11-10.66c-1.35-3.92-2.23-4.18-5.12-1.19a36.66,36.66,0,0,0-9.75,20.2,32.1,32.1,0,0,0-.48,8.86c.13,1.14-.64,1.13-1.31,1.33A24.81,24.81,0,0,0,41.42,61C39.8,65.12,39.61,69.41,41.89,73.42Zm80.56,8.66a48.7,48.7,0,0,0-.66-6.74c2.72,1.35,4.39,3.2,4.63,6.08A6.87,6.87,0,0,1,123.24,88c-.35.24-.73.69-1.18.44s-.18-.81-.1-1.21A31.61,31.61,0,0,0,122.45,82.08ZM73.44,30a2.88,2.88,0,0,1-.67,1.88A38.32,38.32,0,0,0,66.3,44c-.39,1.29-1.13.91-2,1-1.13.08-1.2-.61-1.22-1.34A38.71,38.71,0,0,1,63.62,36a34.59,34.59,0,0,1,8.15-17.58A37.49,37.49,0,0,1,73.44,30ZM43.92,66.38c.38-5.13,2.91-9.19,6.65-12.48,4.56-4,9.74-6.33,16-4.95,1.36.3,2.06-.38,2.43-1.72A38.22,38.22,0,0,1,77.29,32a32.27,32.27,0,0,1,10.35-7.86,9.78,9.78,0,0,1-.42,3.75,37.35,37.35,0,0,1-14.59,22.8c-.82.6-1.31,1.37-.89,2.27a11.67,11.67,0,0,1,.76,7.25A1.64,1.64,0,0,0,73.29,62a1.75,1.75,0,0,0,2.08-.13c.28-.19.53-.44.81-.64,7.64-5.72,16.09-7.3,25-4.05,10.74,3.91,16.68,12,17.55,23.28.69,8.87-2.86,15.91-10.91,20.25-5.7,3.07-11.9,3.87-18.25,3.37a18.46,18.46,0,0,1-13.09-6.38c-4.08-4.77-4-11,.23-15.08a17.58,17.58,0,0,1,3.71-2.69,1.7,1.7,0,0,0,.75-2.51,1.67,1.67,0,0,0-2.43-.65C72.2,80.1,68.06,87,70.69,94.62A20.82,20.82,0,0,0,75,101.55c-4.84,0-9.43,0-14,0a2.22,2.22,0,0,1-2.41-1.91c-.07-1.1.78-2,2.17-2.19,2.23-.37,2.63-1,2.06-3.21-1.21-4.68-2.4-9.36-3.62-14-.24-.93-.26-1.52.94-1.87A20.92,20.92,0,0,0,66.53,75a1.71,1.71,0,0,0,.69-2.32,1.66,1.66,0,0,0-2.08-1,5.69,5.69,0,0,0-1.39.83A18.31,18.31,0,0,1,52.51,76,8.65,8.65,0,0,1,43.92,66.38Z"/></svg>