<svg id="Calque_1" data-name="Calque 1" xmlns="http://www.w3.org/2000/svg" viewBox="0 0 163.15 149.35"><defs><style>.cls-1,.cls-2{fill:#3c3c3b;}.cls-2{stroke:#3c3c3b;stroke-miterlimit:10;}</style></defs><path class="cls-1" d="M154.23,90.89l-7.42-1.64A66.83,66.83,0,1,0,14.75,74.71,67.42,67.42,0,0,0,16.28,89L8.86,90.6A74.42,74.42,0,1,1,156,74.71,75,75,0,0,1,154.23,90.89Z"/><path class="cls-1" d="M28.71,109.1a6.82,6.82,0,0,0-.72-1.94,2.32,2.32,0,0,0-.91-.93.94.94,0,0,0-1,0,1.18,1.18,0,0,0-.59,1.14,10.1,10.1,0,0,0,.39,2.2,18.37,18.37,0,0,1,.49,2.41,4.08,4.08,0,0,1-.26,2,3.46,3.46,0,0,1-1.53,1.67,3.7,3.7,0,0,1-2.29.57,4.29,4.29,0,0,1-2.21-.9,7.22,7.22,0,0,1-1.84-2.11,9.4,9.4,0,0,1-1.18-3.1,8.7,8.7,0,0,1-.06-3.21l2.8-.24a8.32,8.32,0,0,0-.06,2.82,6.46,6.46,0,0,0,.78,2.4A2.79,2.79,0,0,0,21.61,113a1.16,1.16,0,0,0,1.15-.07,1.13,1.13,0,0,0,.56-.76,2.75,2.75,0,0,0,0-1.07,14.93,14.93,0,0,0-.37-1.57,17,17,0,0,1-.51-2.38,4.16,4.16,0,0,1,.23-1.93,3.38,3.38,0,0,1,1.49-1.65,3.67,3.67,0,0,1,2.2-.54,4.2,4.2,0,0,1,2.18.86A7.08,7.08,0,0,1,30.4,106a9.29,9.29,0,0,1,1.08,2.6,9.14,9.14,0,0,1,.31,2.64l-2.81.29A10,10,0,0,0,28.71,109.1Z"/><path class="cls-1" d="M30.32,128.2l1.22-2.6L27.22,121l-2.68,1-2.16-2.33,14.07-5L38.63,117l-6.06,13.61ZM29.74,120l2.94,3.17L35.12,118Z"/><path class="cls-1" d="M50.73,126.6l2.44,1.64-7.62,11.37L43.2,138l-.6-11-4.9,7.31-2.46-1.64,7.62-11.38,2.34,1.57.61,11Z"/><path class="cls-1" d="M60.22,134.08a7.11,7.11,0,0,0-1.74-1.1,2.41,2.41,0,0,0-1.29-.19.94.94,0,0,0-.75.62,1.22,1.22,0,0,0,.22,1.28,10.31,10.31,0,0,0,1.64,1.5,19,19,0,0,1,1.86,1.62,4.16,4.16,0,0,1,1,1.72,3.43,3.43,0,0,1-.2,2.26,3.74,3.74,0,0,1-1.48,1.84,4.21,4.21,0,0,1-2.31.63,7.19,7.19,0,0,1-2.74-.55A9.64,9.64,0,0,1,51.6,142a8.89,8.89,0,0,1-2-2.52l2.07-1.89a8.52,8.52,0,0,0,1.67,2.28,6.42,6.42,0,0,0,2.08,1.43,2.73,2.73,0,0,0,1.52.23,1.17,1.17,0,0,0,.88-.75,1.14,1.14,0,0,0,0-.94,2.68,2.68,0,0,0-.65-.86c-.29-.27-.71-.61-1.24-1a17,17,0,0,1-1.85-1.57,4,4,0,0,1-1-1.68,3.24,3.24,0,0,1,.19-2.22,3.62,3.62,0,0,1,1.41-1.77,4.27,4.27,0,0,1,2.25-.64,7.28,7.28,0,0,1,2.77.56A9.87,9.87,0,0,1,62.13,132,9.49,9.49,0,0,1,64,133.92l-2,1.94A10.67,10.67,0,0,0,60.22,134.08Z"/><path class="cls-1" d="M79.39,136.38a4.42,4.42,0,0,1,1,3.65,4.8,4.8,0,0,1-1.85,3.52,5.76,5.76,0,0,1-4.16.85l-2.7-.3L71.26,148l-3.08-.34L69.73,134l5.77.66A6,6,0,0,1,79.39,136.38Zm-2.8,5.08a2.2,2.2,0,0,0,.89-1.67A2.11,2.11,0,0,0,77,138a3.11,3.11,0,0,0-1.93-.8l-2.55-.28-.52,4.6,2.54.29A3,3,0,0,0,76.59,141.46Z"/><path class="cls-1" d="M92.24,148.05l-1.3-2.56-6.32.55-.84,2.74-3.17.28,4.73-14.16,3.18-.27,7,13.13Zm-6.82-4.57,4.31-.38L87.12,138Z"/><path class="cls-1" d="M106.79,144.32l-3.27-3.06-.27.09-2.72.87,1.19,3.72-2.94.95-4.18-13,5.66-1.82a6.27,6.27,0,0,1,4.33-.08,4.39,4.39,0,0,1,2.47,2.9,5.28,5.28,0,0,1,.2,2.78,4.29,4.29,0,0,1-1.29,2.21l4.15,3.41Zm-7.05-4.56,2.72-.87a2.94,2.94,0,0,0,1.7-1.18,2.15,2.15,0,0,0,.13-1.87,2.06,2.06,0,0,0-1.18-1.42,3,3,0,0,0-2.07.05l-2.71.88Z"/><path class="cls-1" d="M107,129.54l8.6-4.77L116.8,127l-5.89,3.27,1.63,2.93,5.41-3,1.25,2.25-5.4,3,2.51,4.53-2.7,1.5Z"/><path class="cls-1" d="M125.77,129.84a2.92,2.92,0,0,0,2.24-.79,2.81,2.81,0,0,0,1.09-2,3.19,3.19,0,0,0-.9-2.3L123,118.6l2.35-2,5.22,6.12a6.28,6.28,0,0,1,1.46,2.85,5,5,0,0,1-.28,2.91,6.94,6.94,0,0,1-2,2.64,7,7,0,0,1-2.94,1.56,5,5,0,0,1-2.94-.17,6.29,6.29,0,0,1-2.59-1.89l-5.21-6.12,2.35-2,5.21,6.12A3.19,3.19,0,0,0,125.77,129.84Z"/><path class="cls-1" d="M126.44,115.69l2-2.82,9.33,1.34-4.46-8.29,2-2.8L146.47,111l-1.6,2.28-7.57-5.32,4.2,7.71-1.15,1.63L131.67,116l7.58,5.31-1.6,2.27Z"/><path class="cls-2" d="M92.49,53.53V39.9a.6.6,0,0,0-.6-.61H87.55V30.21a.6.6,0,0,0-.61-.6H79.49a.6.6,0,0,0-.6.6v2h-11c-.43-2.28-3.16-4.06-6.5-4.06-3.63,0-6.59,2.09-6.59,4.66s3,4.66,6.59,4.66c3.34,0,6.07-1.77,6.5-4.06h11v5.88H74.7a.6.6,0,0,0-.6.61V53.47A28.36,28.36,0,0,0,67,103.59a.6.6,0,0,0,.34.11H99.13a.61.61,0,0,0,.35-.11,28.36,28.36,0,0,0-7-50.06ZM61.42,36.26c-2.92,0-5.38-1.58-5.38-3.45s2.41-3.45,5.38-3.45,5.38,1.58,5.38,3.45S64.33,36.26,61.42,36.26Zm18.67-5.44h6.25v8.47H80.09ZM75.3,40.5h16V53.12a27.85,27.85,0,0,0-3.45-.77h0a27.15,27.15,0,0,0-12.52.74Zm-3.12,62C62.41,74.28,78,55,79.29,53.46a28.28,28.28,0,0,1,3.93-.31,26.05,26.05,0,0,1,4.26.37c1.58,1.87,16.76,21,7.08,49ZM56,80.33A27.21,27.21,0,0,1,74.69,54.54h0a.56.56,0,0,0,.38-.15,25.13,25.13,0,0,1,2.45-.63C74,58.49,62.21,76.84,70.91,102.49H67.49A27.23,27.23,0,0,1,56,80.33Zm42.9,22.16H95.83c8.64-25.48-2.91-43.76-6.55-48.64a27.16,27.16,0,0,1,9.66,48.64Z"/><path class="cls-1" d="M48.09,105.29a3.26,3.26,0,0,1-2-5.83l67-52.52a3.27,3.27,0,0,1,4,5.14l-67,52.52A3.31,3.31,0,0,1,48.09,105.29Z"/></svg>