<svg id="Calque_1" data-name="Calque 1" xmlns="http://www.w3.org/2000/svg" viewBox="0 0 163.91 148.75"><defs><style>.cls-1{fill:#3c3c3b;}</style></defs><path class="cls-1" d="M97.47,58.24a31.23,31.23,0,0,1,3.15-6.8,2.94,2.94,0,0,0-1.41.16,5.38,5.38,0,0,0-1.86,1.2c-1.17,1.09-1.76,2.65-2.51,4.61a39.74,39.74,0,0,1-1.57,3.74,19.25,19.25,0,0,1-4.67,5.66c-.71.62-1.48,1.24-2.3,1.86l.06,0c.9-.2,1.8-.42,2.68-.64l.13,0a24.79,24.79,0,0,0,2.41-2A59.23,59.23,0,0,0,97.47,58.24Z"/><path class="cls-1" d="M105.24,54a28,28,0,0,1,4.59-6.25A5,5,0,0,0,105.38,49c-1.46,1.12-2.17,2.28-5.32,7.56a67.67,67.67,0,0,1-7.58,10.31c-.11.12-.24.24-.38.37l.47-.14L93,67l1-.29c.33-.1.67-.22,1-.35l.33-.13.7-.29.4-.19.65-.3.44-.23.58-.31c1.75-2.21,5.16-7.52,6.35-9.41Z"/><path class="cls-1" d="M106.33,54.68c-.31.51-.6,1-.89,1.46,0,0-2.44,3.88-4.55,6.93l.29-.19.17-.13c.47-.33.93-.67,1.37-1l.1-.08.57-.44.11-.09.58-.47,0,0c.42-.34.82-.69,1.2-1l0,0,.51-.44s0,0,0,0c.53-.47,1-.89,1.39-1.27l.06,0,.33-.31,0,0,.32-.3a22.68,22.68,0,0,0,2.89-3.85,38,38,0,0,1,4.27-5.65,3.67,3.67,0,0,0-3,0C109.87,48.82,108,51.93,106.33,54.68Z"/><path class="cls-1" d="M117.66,47.34a2.45,2.45,0,0,0-.86.52A32.42,32.42,0,0,0,112,54a23.85,23.85,0,0,1-3.09,4.08,53.83,53.83,0,0,1-10.18,7.87,26.13,26.13,0,0,1-3.8,1.74l-.66.22c-1.31.4-2.93.85-4.67,1.3-2,.51-4.12,1-6.11,1.38-8.15,1.62-9.24.86-9.6.61a1,1,0,0,1-.53-1c.09-.68.86-1,1.61-1.3a29.8,29.8,0,0,1,4.63-1h.07a17.86,17.86,0,0,0,4.77-.9,8,8,0,0,0,2.84-1.6c.16-.16.32-.34.47-.52.54-.7,1.1-1.7.64-2.43a1.63,1.63,0,0,0-1.34-.69c-.42.09-1.82.25-4.25.52-2.69.3-6,.67-8.16,1-.68.11-1.42.2-2.2.3a37.74,37.74,0,0,0-8.13,1.65,19.65,19.65,0,0,0-3.61,1.69l-.7.43c-4.7,2.82-9.14,5.49-10.62,13.2A28,28,0,0,0,49,84,19.59,19.59,0,0,1,48,90.08a42.88,42.88,0,0,1-2.32,4.5c-1.23,2.17-3.06,5.44-2.88,6.39.59.29,3.92.72,8.82-1.75C64.32,92.82,65.78,88,77,84.09c1.09-.38,2.25-.73,3.43-1.14C89.06,79.89,110,71.28,117,57.29c1.25-2.5,3.46-7.79,4.17-9.5A5.06,5.06,0,0,0,117.66,47.34Z"/><path class="cls-1" d="M75.58,58.21H65.51a2.78,2.78,0,0,1-2.78-2.77V49.61H56.91a2.77,2.77,0,0,1-2.77-2.77V36.76A2.77,2.77,0,0,1,56.91,34h5.82V28.16a2.78,2.78,0,0,1,2.78-2.77H75.58a2.78,2.78,0,0,1,2.78,2.77V34h5.82A2.78,2.78,0,0,1,87,36.76V46.84a2.78,2.78,0,0,1-2.78,2.77H78.36v5.83A2.78,2.78,0,0,1,75.58,58.21ZM64.2,46.67h1.47v8.77l9.91-.17-.16-8.6h8.76L84,36.93h-8.6V28.16l-9.91.17.16,8.6H56.91l.16,9.91Z"/><path class="cls-1" d="M153.25,89.51l-4.6-1a68.32,68.32,0,1,0-133.44-.27l-4.61,1a73,73,0,1,1,142.65.29Z"/><path class="cls-1" d="M57.91,115.74,67.33,120l-1,2.15-3.44-1.54-4.08,9.1-2.54-1.14,4.08-9.1L57,117.9Z"/><path class="cls-1" d="M67.84,120.06,77,122l-.48,2.26-6.46-1.38-.56,2.62,5.81,1.23L74.85,129,69,127.77l-.57,2.68,6.66,1.42-.49,2.25-9.37-2Z"/><path class="cls-1" d="M84.52,124.56a6.4,6.4,0,0,0-1.83-.33,2.09,2.09,0,0,0-1.14.27.87.87,0,0,0-.42.78,1.08,1.08,0,0,0,.62,1,8.88,8.88,0,0,0,1.88.7,18.8,18.8,0,0,1,2.09.73,3.66,3.66,0,0,1,1.41,1.1,3,3,0,0,1,.59,1.95,3.33,3.33,0,0,1-.61,2,3.79,3.79,0,0,1-1.71,1.31,6.68,6.68,0,0,1-2.48.46,8.85,8.85,0,0,1-3-.51,8.22,8.22,0,0,1-2.51-1.43l1.1-2.28a7.29,7.29,0,0,0,2.15,1.34,5.82,5.82,0,0,0,2.23.49,2.44,2.44,0,0,0,1.34-.32,1.11,1.11,0,0,0,.15-1.7,2.7,2.7,0,0,0-.83-.5c-.34-.13-.8-.27-1.39-.43a15.53,15.53,0,0,1-2.07-.69,3.69,3.69,0,0,1-1.39-1.07,3,3,0,0,1-.6-1.91,3.38,3.38,0,0,1,.59-2,3.71,3.71,0,0,1,1.67-1.29,6.19,6.19,0,0,1,2.5-.47,8.59,8.59,0,0,1,2.5.36,8.26,8.26,0,0,1,2.19,1l-1.06,2.31A9.92,9.92,0,0,0,84.52,124.56Z"/><path class="cls-1" d="M87.41,122.08l10.08-2.19.5,2.31-3.69.8,2.11,9.75-2.72.59-2.11-9.75-3.67.79Z"/><path class="cls-1" d="M97.94,119.67l8.54-3.89,1,2.1-6,2.74,1.11,2.44,5.41-2.46,1,2.1-5.4,2.46,1.13,2.49,6.19-2.82,1,2.1-8.73,4ZM101.3,114l2.57-.14-1.38,2.75-1.87.66Z"/><path class="cls-1" d="M24.91,106.46a4,4,0,0,1-.62,2.15,4.31,4.31,0,0,1-1.73,1.56,4.38,4.38,0,0,1-2.28.52,4.06,4.06,0,0,1-2.12-.75,5.14,5.14,0,0,1-1.61-1.88l-1.67-3.21,7.71-4,1.71,3.27A5.06,5.06,0,0,1,24.91,106.46ZM19,108.4a2.39,2.39,0,0,0,1.26.35,3.09,3.09,0,0,0,2.47-1.3,2.49,2.49,0,0,0,.42-1.27,2.65,2.65,0,0,0-.31-1.35l-.79-1.5-4.78,2.5.83,1.58A2.54,2.54,0,0,0,19,108.4Z"/><path class="cls-1" d="M27,108.9l3.79,5.43-1.33.94-2.67-3.82-1.55,1.08L27.6,116l-1.33.94-2.4-3.44-1.58,1.1L25,118.5l-1.34.93-3.87-5.54Z"/><path class="cls-1" d="M28.71,125.17l.92-2.69-.12-.14L28.29,121l-1.84,1.67-1.32-1.46,6.44-5.84,2.54,2.8a4,4,0,0,1,1.19,2.48,2.78,2.78,0,0,1-1,2.19,3.45,3.45,0,0,1-1.56.85,2.64,2.64,0,0,1-1.61-.17l-.89,3.3Zm.79-5.27,1.22,1.34a1.89,1.89,0,0,0,1.13.68A1.38,1.38,0,0,0,33,121.5a1.3,1.3,0,0,0,.51-1,2,2,0,0,0-.57-1.19l-1.22-1.34Z"/><path class="cls-1" d="M37.39,121.76l1.7,1.38L37.83,129l5.45-2.45L45,127.9l-5.48,6.76-1.37-1.11,3.7-4.56-5.07,2.32-1-.8L37,125.06l-3.7,4.57-1.37-1.11Z"/><path class="cls-1" d="M47.47,139.44l.26-1.8-3.49-2-1.44,1.12-1.75-1,7.63-5.64,1.75,1-1.14,9.4Zm-1.87-4.86L48,136l.51-3.62Z"/><path class="cls-1" d="M52.65,132.38l6.66,2.93-.67,1.52-2.43-1.07-2.83,6.45-1.8-.79L54.4,135,52,133.91Z"/><path class="cls-1" d="M65.58,137.71a4.34,4.34,0,0,1,1.15,2,4.28,4.28,0,0,1-.07,2.35,4.34,4.34,0,0,1-1.24,2,4.43,4.43,0,0,1-2.09,1.06,5,5,0,0,1-4.54-1.37,4.36,4.36,0,0,1-1.08-4.4,4.3,4.3,0,0,1,1.25-2A4.47,4.47,0,0,1,61,136.33a5,5,0,0,1,2.45.13A5,5,0,0,1,65.58,137.71Zm-4,.37a2.66,2.66,0,0,0-1.23.67,2.79,2.79,0,0,0-.75,1.23,2.66,2.66,0,0,0,0,1.45,2.74,2.74,0,0,0,.65,1.25,2.58,2.58,0,0,0,1.17.74,2.46,2.46,0,0,0,1.37,0,2.68,2.68,0,0,0,1.21-.69,2.84,2.84,0,0,0,.18-3.92,2.59,2.59,0,0,0-2.55-.76Z"/><path class="cls-1" d="M68.91,138l1.94.33-1.17,6.89,3.67.62-.29,1.7-5.61-1Z"/><path class="cls-1" d="M81.79,139.86a4.5,4.5,0,0,1,1.61,1.69,4.32,4.32,0,0,1,.51,2.31,4.23,4.23,0,0,1-.72,2.25,4.31,4.31,0,0,1-1.75,1.55,4.84,4.84,0,0,1-2.4.48,4.75,4.75,0,0,1-2.34-.69,4.41,4.41,0,0,1-2.13-4A4.4,4.4,0,0,1,77,139.65a4.9,4.9,0,0,1,2.4-.47A5,5,0,0,1,81.79,139.86ZM78,141.2A2.84,2.84,0,0,0,76.89,145a2.88,2.88,0,0,0,.94,1.05,2.55,2.55,0,0,0,1.31.43,2.46,2.46,0,0,0,1.34-.31,2.49,2.49,0,0,0,1-1,2.94,2.94,0,0,0,.13-2.8,2.7,2.7,0,0,0-.91-1,2.52,2.52,0,0,0-1.31-.43A2.59,2.59,0,0,0,78,141.2Z"/><path class="cls-1" d="M91.05,143.18l1.69-.16.32,3.37a5.82,5.82,0,0,1-1.58,1,6.08,6.08,0,0,1-1.83.49,4.72,4.72,0,0,1-2.4-.37,4.38,4.38,0,0,1-2.63-3.68,4.24,4.24,0,0,1,.4-2.32,4.4,4.4,0,0,1,1.55-1.77,5.19,5.19,0,0,1,2.35-.81,5.45,5.45,0,0,1,1.92.17,5,5,0,0,1,1.68.79l-1,1.5a3.78,3.78,0,0,0-1.18-.61,3.39,3.39,0,0,0-1.29-.14,2.64,2.64,0,0,0-1.34.5,2.6,2.6,0,0,0-.89,1.08,2.74,2.74,0,0,0-.23,1.43,2.71,2.71,0,0,0,.5,1.36,2.57,2.57,0,0,0,1.08.91,2.63,2.63,0,0,0,1.42.24,2.7,2.7,0,0,0,.81-.21,4.76,4.76,0,0,0,.84-.43Z"/><path class="cls-1" d="M93.69,138.39l1.92-.37,1.65,8.55-1.93.37Z"/><path class="cls-1" d="M109,144.43a3.88,3.88,0,0,1-2.07,1.63,2.69,2.69,0,0,1-1.66,0,3.74,3.74,0,0,1-1.54-1,5,5,0,0,1-2.42.09,4.47,4.47,0,0,1-2-1.07,4.42,4.42,0,0,1-1.23-2,4.41,4.41,0,0,1,1.06-4.39,5.1,5.1,0,0,1,4.55-1.39,4.45,4.45,0,0,1,1.75,7.93,1.65,1.65,0,0,0,1.29.26,1.76,1.76,0,0,0,.62-.38,4.28,4.28,0,0,0,.64-.73Zm-8.27-1.69a2.67,2.67,0,0,0,1.23.68,2.53,2.53,0,0,0,1.39,0,2.42,2.42,0,0,0,1.16-.74,2.66,2.66,0,0,0,.62-1.23A2.9,2.9,0,0,0,105,140a3,3,0,0,0-.74-1.23,2.71,2.71,0,0,0-1.21-.68,2.59,2.59,0,0,0-1.38,0,2.55,2.55,0,0,0-1.17.74,2.81,2.81,0,0,0,.17,3.91Z"/><path class="cls-1" d="M111.5,139.77a1.87,1.87,0,0,0,1.51-.11,1.79,1.79,0,0,0,1-1.07,2,2,0,0,0-.17-1.55l-2.17-4.63,1.78-.83,2.17,4.62a3.93,3.93,0,0,1,.42,2,3.11,3.11,0,0,1-.66,1.73,4.31,4.31,0,0,1-1.66,1.29,4.42,4.42,0,0,1-2.06.46,3.21,3.21,0,0,1-1.78-.59,4.06,4.06,0,0,1-1.27-1.6l-2.17-4.62,1.78-.83,2.17,4.62A2.06,2.06,0,0,0,111.5,139.77Z"/><path class="cls-1" d="M114.78,130.76l5.61-3.52.87,1.38-4,2.47,1,1.61,3.55-2.23.87,1.38-3.55,2.22,1,1.64,4.07-2.55.86,1.38-5.73,3.59Z"/><path class="cls-1" d="M121.33,126.63,123,125.2l5.54,2.27-1.46-5.8,1.65-1.42,5.69,6.58L133.07,128l-3.84-4.45,1.39,5.4-1,.83-5.14-2.16,3.84,4.45L127,133.21Z"/><path class="cls-1" d="M129.68,119.11l4.32-5,1.24,1.06-3,3.53,1.43,1.24,2.73-3.17,1.23,1.06L134.86,121l1.46,1.26,3.13-3.64,1.24,1.07-4.42,5.12Z"/><path class="cls-1" d="M138.13,108l1-1.57,7.3,4.75-1,1.5-7,.48,4.69,3-1,1.57L134.86,113l1-1.5,7-.48Z"/><path class="cls-1" d="M139.51,105.72l3.16-6.55,1.5.72-1.16,2.4,6.35,3-.86,1.77-6.34-3L141,106.44Z"/></svg>