<svg id="Calque_1" data-name="Calque 1" xmlns="http://www.w3.org/2000/svg" viewBox="0 0 171.57 149.75"><defs><style>.cls-1{fill:#3c3c3b;}</style></defs><path class="cls-1" d="M157.71,90.33l-4.64-1a68.93,68.93,0,1,0-136.21-15A69.7,69.7,0,0,0,18.44,89L13.8,90a73.67,73.67,0,1,1,143.91.29Z"/><path class="cls-1" d="M64.23,117.71l8.08,3.14-.72,1.85-3-1.14-3,7.81-2.18-.85,3-7.81-2.94-1.15Z"/><path class="cls-1" d="M72.94,121l7.75,1.5-.37,1.91-5.45-1.06-.43,2.21,4.9.95-.36,1.9-4.91-.94-.43,2.25,5.61,1.09-.36,1.9L71,131.17Z"/><path class="cls-1" d="M87.15,124.7a5.25,5.25,0,0,0-1.53-.29,1.81,1.81,0,0,0-1,.21.72.72,0,0,0-.35.65.88.88,0,0,0,.5.84,7.33,7.33,0,0,0,1.58.61,13.51,13.51,0,0,1,1.75.63,3,3,0,0,1,1.17.94,2.57,2.57,0,0,1,.48,1.65,2.78,2.78,0,0,1-.53,1.7,3.29,3.29,0,0,1-1.45,1.09,5.69,5.69,0,0,1-2.09.36,7.25,7.25,0,0,1-2.47-.46,6.61,6.61,0,0,1-2.1-1.23l.94-1.9a6.44,6.44,0,0,0,1.8,1.15,5,5,0,0,0,1.87.44,2.12,2.12,0,0,0,1.13-.26A.93.93,0,0,0,87,129.4a2,2,0,0,0-.69-.43c-.28-.11-.67-.24-1.16-.38a13.21,13.21,0,0,1-1.74-.6,3,3,0,0,1-1.16-.91,2.51,2.51,0,0,1-.48-1.61,2.71,2.71,0,0,1,.51-1.64,3.28,3.28,0,0,1,1.41-1.07,5.52,5.52,0,0,1,2.11-.37,7.19,7.19,0,0,1,2.1.33,7,7,0,0,1,1.83.83l-.91,1.94A7.9,7.9,0,0,0,87.15,124.7Z"/><path class="cls-1" d="M89.83,122.61l8.53-1.49.34,2-3.12.54L97,131.88l-2.31.41L93.27,124l-3.11.54Z"/><path class="cls-1" d="M98.94,120.92l7.4-2.75L107,120l-5.21,1.93.79,2.11,4.67-1.74.68,1.82-4.68,1.74.8,2.15,5.36-2,.67,1.82-7.55,2.81Zm3.17-4.59,2.16,0-1.33,2.23-1.6.44Z"/><path class="cls-1" d="M27.91,101.14a5.94,5.94,0,0,1-6.74,5.15A5.91,5.91,0,0,1,18.34,105a6.39,6.39,0,0,1-1.9-2.62A6.32,6.32,0,0,1,16,99.2a5.84,5.84,0,0,1,3.65-4.77,5.79,5.79,0,0,1,5.92.88,6.48,6.48,0,0,1,1.9,2.63A6.4,6.4,0,0,1,27.91,101.14Zm-3.67-3.78a3.48,3.48,0,0,0-1.72-.7,3.74,3.74,0,0,0-4.17,3.1A3.4,3.4,0,0,0,19.66,103a3.6,3.6,0,0,0,1.71.67,3.73,3.73,0,0,0,1.91-.27,3.72,3.72,0,0,0,2.29-2.8,3.27,3.27,0,0,0-.21-1.8A3.39,3.39,0,0,0,24.24,97.36Z"/><path class="cls-1" d="M33.75,112a3.64,3.64,0,0,1-1.83,2.61,4,4,0,0,1-3.27.67,4.83,4.83,0,0,1-2.78-2.25l-1.24-1.92-2.76,1.79-1.41-2.19,9.67-6.25,2.65,4.11A5,5,0,0,1,33.75,112Zm-4.79.89a1.87,1.87,0,0,0,1.56-.31,1.78,1.78,0,0,0,.89-1.27,2.59,2.59,0,0,0-.51-1.69l-1.17-1.8L26.46,110l1.16,1.81A2.59,2.59,0,0,0,29,112.91Z"/><path class="cls-1" d="M35.81,113.24l1.76,1.92L34,118.4l3.52,3.85L41.09,119l1.76,1.92-8.49,7.78-1.76-1.91L36,123.72l-3.53-3.85-3.34,3.07L27.32,121Z"/><path class="cls-1" d="M43.32,121.3l7.61,5.9-1.35,1.74-2.79-2.15-5.71,7.36-2-1.59,5.71-7.37L42,123.05Z"/><path class="cls-1" d="M52.3,141.15l.3-2.39L48,136.15l-1.89,1.5-2.34-1.3,10-7.6,2.34,1.31-1.34,12.45Zm-2.58-6.41,3.17,1.78.61-4.79Z"/><path class="cls-1" d="M60.83,132.42l2.44.9L60.07,142l4.64,1.72-.79,2.13-7.07-2.61Z"/><path class="cls-1" d="M68.59,135.42l2.85.49,2.32,7.59,4.72-6.36,2.83.5-2,11.35-2.3-.4,1.34-7.67-4.36,6-1.66-.29-2.11-7.08-1.33,7.67-2.3-.41Z"/><path class="cls-1" d="M91.45,137.9a5.9,5.9,0,0,1,.4,10.32,6.81,6.81,0,0,1-6.29.24,5.89,5.89,0,0,1-2.31-2.06,5.87,5.87,0,0,1,1.91-8.26,6.74,6.74,0,0,1,6.29-.24Zm-4.81,2.17a3.51,3.51,0,0,0-1.25,1.37,3.85,3.85,0,0,0,.15,3.7,3.76,3.76,0,0,0,1.35,1.28,3.39,3.39,0,0,0,1.79.43,3.29,3.29,0,0,0,1.73-.56,3.48,3.48,0,0,0,1.22-1.38A3.89,3.89,0,0,0,92,143a3.76,3.76,0,0,0-.54-1.82,3.6,3.6,0,0,0-1.32-1.28,3.41,3.41,0,0,0-1.77-.42A3.36,3.36,0,0,0,86.64,140.07Z"/><path class="cls-1" d="M95.33,136.84l2.55-.52,1.86,9.06,4.84-1,.46,2.22-7.39,1.53Z"/><path class="cls-1" d="M111.65,132.67a5.65,5.65,0,0,1,2.85,1.18,6,6,0,0,1,2.18,5.64,5.81,5.81,0,0,1-1.3,2.81,6.74,6.74,0,0,1-5.86,2.27,5.84,5.84,0,0,1-2.85-1.19,6,6,0,0,1-2.19-5.65,5.79,5.79,0,0,1,1.3-2.79,6.77,6.77,0,0,1,5.87-2.27Zm-3.84,3.61a3.46,3.46,0,0,0-.73,1.7,3.64,3.64,0,0,0,.21,1.9,3.79,3.79,0,0,0,1.13,1.56,3.71,3.71,0,0,0,1.7.77,3.41,3.41,0,0,0,3.28-1.27,3.53,3.53,0,0,0,.7-1.69,3.86,3.86,0,0,0-1.34-3.47,3.52,3.52,0,0,0-1.66-.77,3.14,3.14,0,0,0-1.81.18A3.34,3.34,0,0,0,107.81,136.28Z"/><path class="cls-1" d="M124.41,131.43l1.93-1.16,2.31,3.83a7.55,7.55,0,0,1-1.33,2.07,7.8,7.8,0,0,1-1.9,1.64,6.36,6.36,0,0,1-3.08.94,5.83,5.83,0,0,1-5.25-2.89,5.75,5.75,0,0,1-.85-3,5.84,5.84,0,0,1,.85-3,6.59,6.59,0,0,1,2.34-2.32,6.9,6.9,0,0,1,2.39-.89,6.52,6.52,0,0,1,2.45,0L124,129a4.74,4.74,0,0,0-1.76-.06,4.34,4.34,0,0,0-1.62.57,3.61,3.61,0,0,0-1.77,3.16,3.68,3.68,0,0,0,.55,1.84,3.72,3.72,0,0,0,1.38,1.35,3.6,3.6,0,0,0,3.64-.07,3.86,3.86,0,0,0,.85-.71,6.22,6.22,0,0,0,.75-1Z"/><path class="cls-1" d="M124.47,124.24l2-1.64,7.24,9-2,1.63Z"/><path class="cls-1" d="M145.79,121.55a5,5,0,0,1-.37,1.76,4.91,4.91,0,0,1-.94,1.49,3.7,3.7,0,0,1-1.91,1.08,5.16,5.16,0,0,1-2.42-.12,6.36,6.36,0,0,1-2.72,1.69,5.81,5.81,0,0,1-5.76-1.37,5.65,5.65,0,0,1-1.64-2.66,5.75,5.75,0,0,1,0-3.08,6.81,6.81,0,0,1,4.32-4.58,5.76,5.76,0,0,1,3.08-.16,5.68,5.68,0,0,1,2.75,1.48,5.84,5.84,0,0,1,1.39,6.64,2.13,2.13,0,0,0,1.65-.55,2.6,2.6,0,0,0,.47-.85,5.53,5.53,0,0,0,.25-1.25Zm-10.61,3.51a3.66,3.66,0,0,0,1.86,0,3.41,3.41,0,0,0,2.43-2.56,3.57,3.57,0,0,0-.11-1.83,3.62,3.62,0,0,0-1-1.62,3.72,3.72,0,0,0-1.66-.93,3.55,3.55,0,0,0-1.83,0,3.32,3.32,0,0,0-1.56.94,3.48,3.48,0,0,0-.86,1.63,3.52,3.52,0,0,0,.07,1.85,3.65,3.65,0,0,0,1,1.61A3.57,3.57,0,0,0,135.18,125.06Z"/><path class="cls-1" d="M145.52,114.29a2.49,2.49,0,0,0,1.6-1.19,2.41,2.41,0,0,0,.37-1.91,2.74,2.74,0,0,0-1.3-1.62L140.47,106l1.39-2.2,5.72,3.61a5.35,5.35,0,0,1,1.89,1.93,4.07,4.07,0,0,1,.5,2.4,5.71,5.71,0,0,1-.94,2.62,5.93,5.93,0,0,1-2,2,4.15,4.15,0,0,1-2.41.6,5.19,5.19,0,0,1-2.55-.87l-5.72-3.61,1.38-2.2,5.73,3.62A2.69,2.69,0,0,0,145.52,114.29Z"/><path class="cls-1" d="M142.48,102.38l3.35-8.11,2,.82-2.35,5.71,2.31,1,2.12-5.13,2,.82-2.11,5.13,2.35,1,2.42-5.87,2,.82-3.41,8.28Z"/><path class="cls-1" d="M39,40.83a2.27,2.27,0,0,1,2.38-1.3c2.83,0,5.66,0,8.59,0V38.41c0-2.63,0-5.25,0-7.88a1.78,1.78,0,0,1,2-2H62.52a1.81,1.81,0,0,1,2,2v9h9a1.8,1.8,0,0,1,2,2c0,1.52,0,3.05,0,4.64l3.56-.6a38.6,38.6,0,0,1,22.21,2.87A75.39,75.39,0,0,1,125.93,66c2.15,2.23,4.1,4.68,6.1,7.05a1.82,1.82,0,0,1,0,2.65c-8,10.07-17.45,18.3-29.08,23.85a67.84,67.84,0,0,1-8.65,3.09,1.79,1.79,0,0,1-2.15-2.36,2.23,2.23,0,0,1,1.64-1.31c2.77-1,5.61-1.82,8.27-3.05a67.9,67.9,0,0,0,18.37-13.12c2.74-2.64,5.31-5.46,8-8.25-.47-.58-.83-1-1.2-1.45a81.11,81.11,0,0,0-23-19.13,42,42,0,0,0-15-5,38.81,38.81,0,0,0-13.8,1.11v2.07a1.82,1.82,0,0,1-2.06,2.08H64.55v8.88c0,1.46-.66,2.11-2.12,2.11-3.42,0-6.83,0-10.24,0a2.22,2.22,0,0,0-1.41.59c-2.6,2.74-5.15,5.53-7.76,8.35.46.56.78,1,1.13,1.39A82.64,82.64,0,0,0,67.52,94.94a43.43,43.43,0,0,0,10.25,4,1.88,1.88,0,0,1,1.65,2,1.75,1.75,0,0,1-1.52,1.69,3.57,3.57,0,0,1-1.33-.15,57.18,57.18,0,0,1-18.42-9A85.17,85.17,0,0,1,39,75.1H39V73.81a8.46,8.46,0,0,1,.67-1c3-3.35,5.87-6.76,9-10A4.14,4.14,0,0,0,50,59.43c-.11-1.71,0-3.45,0-5.23-2.94,0-5.77,0-8.59,0A2.27,2.27,0,0,1,39,52.92Zm3.7,9.71h8.79c1.47,0,2.13.65,2.14,2.1v8.85h7.31v-.94c0-2.62,0-5.25,0-7.87,0-1.47.65-2.14,2.1-2.14h8.82V43.21H63c-1.47,0-2.13-.66-2.13-2.11,0-2.63,0-5.25,0-7.88v-1H53.58v8.81c0,1.47-.65,2.13-2.11,2.14H42.65Z"/><path class="cls-1" d="M104.05,74.43A18.29,18.29,0,1,1,85.85,56,18.27,18.27,0,0,1,104.05,74.43ZM85.75,59.7a14.66,14.66,0,1,0,14.64,14.69A14.74,14.74,0,0,0,85.75,59.7Z"/><path class="cls-1" d="M83.94,101.86a1.83,1.83,0,1,1,1.87,1.81A1.78,1.78,0,0,1,83.94,101.86Z"/><path class="cls-1" d="M93.07,74.43A7.31,7.31,0,1,1,85.86,67,7.27,7.27,0,0,1,93.07,74.43Zm-11-.05a3.65,3.65,0,1,0,3.65-3.68A3.74,3.74,0,0,0,82.11,74.38Z"/></svg>